<mxfile host="app.diagrams.net" modified="2022-09-17T12:51:44.494Z" agent="5.0 (Windows NT 10.0; Win64; x64) AppleWebKit/537.36 (KHTML, like Gecko) Chrome/105.0.0.0 Safari/537.36" etag="IFUMLHzBUndWphRtZptD" version="20.2.7" type="github">
  <diagram id="C5RBs43oDa-KdzZeNtuy" name="Page-1">
    <mxGraphModel dx="782" dy="411" grid="1" gridSize="10" guides="1" tooltips="1" connect="1" arrows="1" fold="1" page="1" pageScale="1" pageWidth="827" pageHeight="1169" math="0" shadow="0">
      <root>
        <mxCell id="WIyWlLk6GJQsqaUBKTNV-0" />
        <mxCell id="WIyWlLk6GJQsqaUBKTNV-1" parent="WIyWlLk6GJQsqaUBKTNV-0" />
        <mxCell id="ti8q-m4IvddWQEj-IjOo-0" value="&lt;b&gt;IDLE&lt;/b&gt;&lt;br&gt;Pselx=0&lt;br&gt;Penable=0" style="ellipse;whiteSpace=wrap;html=1;fillColor=#dae8fc;strokeColor=#6c8ebf;" vertex="1" parent="WIyWlLk6GJQsqaUBKTNV-1">
          <mxGeometry x="290" y="10" width="170" height="110" as="geometry" />
        </mxCell>
        <mxCell id="ti8q-m4IvddWQEj-IjOo-4" value="" style="edgeStyle=orthogonalEdgeStyle;rounded=0;orthogonalLoop=1;jettySize=auto;html=1;" edge="1" parent="WIyWlLk6GJQsqaUBKTNV-1" source="ti8q-m4IvddWQEj-IjOo-1" target="ti8q-m4IvddWQEj-IjOo-2">
          <mxGeometry relative="1" as="geometry" />
        </mxCell>
        <mxCell id="ti8q-m4IvddWQEj-IjOo-1" value="&lt;b&gt;SETUP&amp;nbsp;&lt;/b&gt;&lt;br&gt;Pselx=1&lt;br&gt;Penable=0" style="ellipse;whiteSpace=wrap;html=1;fillColor=#fff2cc;strokeColor=#d6b656;" vertex="1" parent="WIyWlLk6GJQsqaUBKTNV-1">
          <mxGeometry x="290" y="170" width="170" height="110" as="geometry" />
        </mxCell>
        <mxCell id="ti8q-m4IvddWQEj-IjOo-2" value="&lt;b&gt;ACCESS&amp;nbsp;&lt;br&gt;&lt;/b&gt;Pselx=1&lt;br&gt;Penable=1" style="ellipse;whiteSpace=wrap;html=1;fillColor=#d5e8d4;strokeColor=#82b366;" vertex="1" parent="WIyWlLk6GJQsqaUBKTNV-1">
          <mxGeometry x="290" y="350" width="170" height="110" as="geometry" />
        </mxCell>
        <mxCell id="ti8q-m4IvddWQEj-IjOo-3" value="" style="endArrow=classic;html=1;rounded=0;" edge="1" parent="WIyWlLk6GJQsqaUBKTNV-1">
          <mxGeometry width="50" height="50" relative="1" as="geometry">
            <mxPoint x="380" y="120" as="sourcePoint" />
            <mxPoint x="380" y="170" as="targetPoint" />
            <Array as="points">
              <mxPoint x="380" y="120" />
            </Array>
          </mxGeometry>
        </mxCell>
        <mxCell id="ti8q-m4IvddWQEj-IjOo-11" value="" style="endArrow=classic;startArrow=classic;html=1;entryX=0.914;entryY=0.188;entryDx=0;entryDy=0;exitX=1;exitY=1;exitDx=0;exitDy=0;entryPerimeter=0;curved=1;targetPerimeterSpacing=5;" edge="1" parent="WIyWlLk6GJQsqaUBKTNV-1" source="ti8q-m4IvddWQEj-IjOo-0" target="ti8q-m4IvddWQEj-IjOo-0">
          <mxGeometry width="50" height="50" relative="1" as="geometry">
            <mxPoint x="460" y="140" as="sourcePoint" />
            <mxPoint x="430" y="210" as="targetPoint" />
            <Array as="points">
              <mxPoint x="520" y="80" />
              <mxPoint x="560" y="70" />
            </Array>
          </mxGeometry>
        </mxCell>
      </root>
    </mxGraphModel>
  </diagram>
</mxfile>
